<?xml version="1.0"?>
<svg width="600" height="180" xmlns="http://www.w3.org/2000/svg" xmlns:svg="http://www.w3.org/2000/svg" preserveAspectRatio="xMidYMid meet" version="1.0">
 <g class="layer">
  <title>Layer 1</title>
  <g id="svg_1" fill="#00000">
   <path d="m139.04,106.84c-1.65,3.96 0,6.51 4.27,6.51c3.72,0 4.13,-0.38 4.13,-3.83c0,-3.19 -0.55,-3.83 -3.85,-4.21c-2.34,-0.26 -3.99,0.26 -4.54,1.53l-0.01,0z" id="svg_2"/>
   <path d="m18.73,111.95c0,5.49 -0.14,5.62 -4.4,5.36c-3.85,-0.13 -4.82,0.51 -6.88,4.34c-3.03,5.62 -3.17,16.22 -0.28,22.86c2.34,5.49 3.58,6.13 12.39,6.26l5.64,0.13l0.83,-16.22c0.55,-8.94 0.96,-18.9 0.96,-22.35c0,-5.87 -0.14,-6 -4.13,-6c-3.99,0 -4.13,0.26 -4.13,5.62zm-0.69,22.48c0,7.66 -0.41,9.58 -2.06,9.58c-1.65,0 -2.2,-2.17 -2.48,-9.96c-0.41,-9.07 -0.14,-9.96 2.06,-9.58c2.06,0.38 2.48,1.79 2.48,9.96z" id="svg_3"/>
   <path d="m66.22,107.6c-0.41,0.64 -0.41,3.32 0.14,5.87c0.83,4.34 0.69,4.6 -2.06,3.7c-7.57,-2.17 -11.15,3.19 -11.15,17.11c0,12.52 6.33,20.56 12.11,15.2c1.24,-1.15 1.65,-1.15 1.65,0c0,0.89 1.51,1.53 3.44,1.53l3.44,0l0,-22.35l0,-22.35l-3.3,0c-1.93,0 -3.85,0.51 -4.27,1.28l0,0.01zm0.41,27.71c-0.55,9.07 -1.79,10.98 -4.68,7.53c-2.34,-3.06 -2.62,-13.92 -0.41,-17.62c1.51,-2.68 1.65,-2.68 3.58,-0.26c1.38,1.66 1.79,4.85 1.51,10.34l0,0.01z" id="svg_4"/>
   <path d="m77.1,108.37c0.41,1.15 0.83,4.6 0.83,7.66c0,4.73 0.41,5.62 2.75,5.62c2.06,0 2.75,-0.89 2.75,-3.7c0,-2.04 0.41,-5.49 0.83,-7.66c0.83,-3.83 0.69,-3.96 -3.58,-3.96c-3.44,0 -4.27,0.38 -3.58,2.04z" id="svg_5"/>
   <path d="m117.02,128.68c0.14,22.35 0.14,22.35 3.3,22.35c2.62,0 3.03,-0.77 3.17,-4.85l0.14,-4.73l2.2,4.73c1.65,3.45 3.17,4.85 5.37,4.85c4.68,0 5.09,-2.17 1.24,-8.43l-3.58,-5.87l3.44,-7.79c4.27,-9.58 4.27,-11.11 0.14,-11.11c-2.75,0 -3.72,1.02 -5.37,5.36l-2.06,5.49l-0.14,-11.24l-0.14,-11.11l-3.85,0l-3.99,0l0.14,22.35l-0.01,0z" id="svg_6"/>
   <path d="m186.26,107.22c-0.28,0.51 -0.69,10.09 -0.69,21.07c-0.14,18.77 0,20.05 2.48,20.82c4.54,1.4 5.51,-0.51 5.51,-10.85c0,-11.11 0.69,-14.05 3.58,-14.05c2.89,0 3.72,5.49 2.75,16.09l-0.96,9.45l4.27,0l4.13,0l0,-13.28c0,-7.41 -0.55,-14.81 -1.38,-16.6c-1.38,-3.58 -5.09,-4.34 -9.77,-1.92c-2.75,1.28 -2.75,1.02 -2.48,-4.85c0.41,-5.75 0.28,-6.13 -3.17,-6.51c-1.93,-0.26 -3.85,0 -4.27,0.64l0,-0.01z" id="svg_7"/>
   <path d="m153.63,113.35c0,3.7 -0.55,4.47 -2.89,4.47c-2.2,0 -2.75,0.64 -2.34,3.45c0.28,2.55 1.1,3.45 2.89,3.19c2.06,-0.38 2.34,1.02 2.34,13.15l0,13.41l3.44,0l3.44,0l0,-13.41c0,-12.52 0.14,-13.41 2.75,-13.41c2.06,0 2.75,-0.89 2.75,-3.19c0,-2.04 -0.83,-3.19 -2.06,-3.19c-1.38,0 -2.06,-1.4 -2.06,-4.47c0,-4.09 -0.28,-4.47 -4.13,-4.47c-3.85,0 -4.13,0.38 -4.13,4.47z" id="svg_8"/>
   <path d="m89.76,117.69c-4.13,4.09 -3.44,10.85 1.65,16.6c5.64,6.64 5.78,9.58 0.41,8.81c-3.44,-0.51 -4.13,0 -4.68,2.43c-1.1,5.36 7.3,7.41 12.53,3.06c4.54,-3.58 4.13,-10.85 -1.1,-16.35c-2.2,-2.3 -4.13,-5.49 -4.13,-6.9c0,-2.3 0.69,-2.68 4.13,-2.17c3.72,0.51 4.13,0.26 4.13,-2.94c0,-5.36 -8.53,-7.02 -12.94,-2.55l0,0.01z" id="svg_9"/>
   <path d="m32.64,119.86c-1.65,1.92 -2.89,4.73 -2.89,6.51c0,2.55 0.55,2.94 4.13,2.68c3.3,-0.26 4.13,-0.89 4.13,-3.19c0,-1.79 0.83,-2.94 2.06,-2.94c1.24,0 2.06,1.15 2.06,3.06c0,2.04 -1.93,4.34 -6.06,7.28c-7.16,4.98 -8.81,9.07 -5.64,13.54c3.03,4.21 5.64,4.85 9.36,2.55c2.89,-1.79 3.3,-1.66 4.54,0.13c0.96,1.28 2.34,1.66 3.85,1.15c2.2,-0.89 2.48,-2.43 1.93,-14.81c-0.41,-11.49 -0.96,-14.43 -3.03,-16.6c-3.85,-3.96 -10.87,-3.58 -14.45,0.64l0.01,0zm9.91,17.37c-1.1,3.83 -3.03,6.13 -5.37,6.13c-2.89,0 -2.34,-2.3 1.51,-5.75c4.13,-3.96 4.82,-3.96 3.85,-0.38l0.01,0z" id="svg_10"/>
   <path d="m170.7,119.23c-2.06,2.17 -2.75,4.98 -3.03,14.05c-0.55,11.11 -0.55,11.37 3.58,15.2c5.23,4.73 11.29,5.24 11.29,0.89c0,-1.79 -1.24,-3.32 -3.03,-4.09c-4.13,-1.66 -6.19,-9.19 -4.4,-15.71c0.96,-3.83 1.93,-4.85 4.96,-5.11c3.03,-0.38 3.58,-1.02 3.44,-3.83c-0.28,-2.94 -0.96,-3.45 -5.23,-3.83c-3.58,-0.26 -5.51,0.38 -7.57,2.43l-0.01,0z" id="svg_11"/>
   <path d="m214.34,119.86c-5.51,6.51 -5.37,22.99 0.14,28.61c2.34,2.3 3.85,2.68 8.95,2.17c7.3,-0.77 7.43,-0.89 6.33,-4.6c-0.69,-2.43 -1.51,-2.81 -4.54,-2.3c-3.85,0.77 -6.88,-0.89 -6.88,-3.7c0,-1.02 2.2,-1.79 5.23,-2.04l5.09,-0.38l0.41,-6.64c0.55,-8.94 -2.48,-14.43 -7.98,-14.43c-2.62,0 -4.82,1.15 -6.75,3.32l0,-0.01zm7.85,9.07c-0.55,4.98 -3.85,5.36 -3.85,0.51c0,-2.68 0.69,-3.96 2.2,-3.96c1.51,0 1.93,1.02 1.65,3.45z" id="svg_12"/>
   <path d="m138.49,133.78c0,14.3 0.28,16.09 2.2,15.45c1.24,-0.38 3.03,-0.77 4.13,-0.77c1.65,0 1.93,-2.55 1.65,-15.07l-0.41,-14.94l-3.72,-0.38l-3.85,-0.38l0,16.09z" id="svg_14"/>
   <path d="m245.17,117.95c-1.51,0.51 -4.82,1.02 -7.16,1.02l-4.54,0.13l0,15.2c0,15.07 0,15.07 3.3,15.07c3.03,0 3.3,-0.38 3.85,-11.37c0.83,-11.62 2.48,-15.58 5.37,-12.9c0.96,0.89 1.38,5.62 1.1,13.03l-0.55,11.62l3.58,0c4.27,0 5.37,-3.32 5.37,-15.2c0,-13.66 -3.44,-19.16 -10.32,-16.6z" id="svg_13"/>
   <g id="svg_19">
    <path d="m372.97,10.86c-12.25,3.45 -25.66,9.77 -25.66,11.94c0,1.98 12.25,7.99 21.06,10.36l5.93,1.58l-11.11,4.05c-33.7,12.34 -62.41,28.41 -72.19,40.65c-5.18,6.51 -4.4,7.5 6.13,7.5c7.46,0 12.25,-0.89 26.24,-5.03c9.57,-2.76 20.48,-6.31 24.31,-7.89c3.83,-1.58 7.65,-2.86 8.23,-2.86c3.07,0 27.96,-9.27 33.5,-12.43c3.25,-1.98 12.25,-4.93 19.73,-6.7c13.6,-3.15 74.68,-20.42 87.49,-24.66c3.63,-1.28 13.02,-4.14 20.68,-6.51c15.51,-4.74 16.27,-5.03 14.36,-7.39c-1.14,-1.58 -3.63,-1.67 -27.19,-1.19c-30.45,0.69 -53.99,3.45 -82.52,9.77c-9.95,2.17 -19.34,4.24 -20.48,4.44c-1.91,0.4 -2.49,-1.09 -2.49,-5.53c0,-5.62 -0.58,-6.31 -6.7,-9.48c-3.63,-1.88 -7.28,-3.45 -8.04,-3.45c-0.77,0 -5.93,1.28 -11.3,2.86l0.03,-0.03l-0.01,0zm15.51,3.05c-0.58,0.5 -1.91,0.98 -3.07,0.98c-0.96,0 -1.72,-0.5 -1.72,-0.98c0,-0.59 1.34,-0.98 3.07,-0.98c1.53,0 2.3,0.4 1.72,0.98zm-65.29,51.9c0.58,0.89 1.14,2.27 1.14,3.15c0,1.38 -0.77,1.28 -4.02,-0.5c-2.3,-1.09 -3.44,-2.57 -2.88,-3.15c1.91,-1.58 4.4,-1.38 5.74,0.5l0.01,0l0.01,0z" id="svg_15"/>
    <path d="m503.74,42.13c-0.77,0.4 -0.77,3.84 0,7.7c0.96,6.51 0.58,7.7 -5.18,14.41c-4.79,5.72 -5.93,8.19 -5.18,11.54c0.96,5.03 9.39,11.15 15.13,11.15c3.44,0 3.83,-0.4 2.88,-3.55c-0.96,-2.67 0,-4.84 3.44,-8.39c5.55,-5.43 6.13,-10.85 1.91,-16.08c-1.53,-1.98 -3.25,-6.22 -3.83,-9.48c-0.39,-3.26 -1.34,-6.41 -1.91,-6.91c-1.34,-1.09 -5.35,-1.28 -7.28,-0.4l0.01,0l0.01,0.01z" id="svg_16"/>
    <path d="m449.56,59.5c-0.96,0.69 -1.34,2.86 -0.96,4.84c0.19,2.27 -1.14,5.22 -3.83,7.99c-5.93,5.93 -5.93,12.73 0.19,16.08c6.51,3.55 9.57,3.15 9.57,-1.28c0.19,-1.98 1.34,-4.74 2.88,-6.12c3.25,-2.86 3.63,-7.79 1.14,-11.05c-1.14,-1.28 -2.49,-4.34 -3.07,-7.01c-1.14,-4.64 -3.25,-5.72 -5.93,-3.45l0.01,-0.01l0,0.01z" id="svg_17"/>
    <path d="m529.21,90.88c-6.9,0.4 -51.12,0.79 -98.6,0.89c-112.01,0.1 -143.02,1.48 -152.41,6.62c-5.93,3.26 -3.44,7.39 5.55,8.79c4.98,0.69 6.13,1.38 6.13,3.55l0,2.67l-12.44,-0.5c-15.13,-0.69 -22.59,1.19 -21.64,5.43l0.58,2.67l17.23,0l17.23,0l2.11,10.46c2.68,12.92 6.32,17.07 18.95,21.11l9.39,2.96l30.63,-0.29c17.04,-0.1 60.11,-0.59 95.92,-0.98c59.93,-0.69 65.87,-0.98 73.71,-2.86c17.04,-4.05 23.55,-10.25 27.19,-26.05l2.3,-9.77l8.23,-1.58c6.7,-1.38 9.57,-1.48 17.04,-0.5c9.57,1.28 15.13,0.79 16.85,-1.38c3.83,-5.22 -14.36,-9.17 -28.71,-6.41c-2.88,0.59 -5.55,0.89 -5.93,0.59c-1.34,-0.69 3.63,-4.93 7.46,-6.31c4.98,-1.88 4.4,-6.62 -0.77,-8.48c-4.6,-1.67 -14.36,-1.78 -36,-0.59l0.01,-0.03l-0.01,-0.01zm-26.8,29.6c0,0.5 -0.77,0.98 -1.91,0.98c-0.96,0 -1.91,-0.5 -1.91,-0.98c0,-0.59 0.96,-0.98 1.91,-0.98c1.14,0 1.91,0.4 1.91,0.98zm-40.21,16.28c2.49,1.58 0.58,1.98 -4.6,0.89c-1.72,-0.29 -2.49,-0.98 -1.91,-1.48c1.53,-1.28 3.83,-1.09 6.51,0.59zm-48.25,8.39c4.21,2.76 4.21,2.86 0.77,3.84c-4.79,1.28 -8.04,-0.4 -8.04,-4.05c0,-3.45 1.72,-3.45 7.28,0.19l-0.01,0.01l0,0.01zm-81.17,6.22c2.11,1.48 3.25,2.96 2.49,3.36c-1.72,0.89 -10.92,-3.65 -10.92,-5.43c0,-1.98 4.02,-0.98 8.42,2.07l0.01,0zm71.99,-1.28c0,0.5 -0.39,0.98 -0.77,0.98c-0.58,0 -1.53,-0.5 -2.11,-0.98c-0.58,-0.59 -0.19,-0.98 0.77,-0.98c1.14,0 2.11,0.4 2.11,0.98zm73.91,2.67c-1.91,0.98 -3.63,-0.5 -1.91,-1.78c1.14,-1.09 1.53,-1.09 2.3,0c0.39,0.69 0.19,1.48 -0.39,1.78z" id="svg_18"/>
   </g>
  </g>
 </g>
</svg>