<?xml version="1.0"?>
<svg width="400" height="300" xmlns="http://www.w3.org/2000/svg" xmlns:svg="http://www.w3.org/2000/svg" preserveAspectRatio="xMidYMid meet" version="1.0">
 <g class="layer" fill="#3d3d3d">
  <title>Layer 1</title>
  <path d="m142.97,83.86c-12.25,3.45 -25.66,9.77 -25.66,11.94c0,1.98 12.25,7.99 21.06,10.36l5.93,1.58l-11.11,4.05c-33.7,12.34 -62.41,28.41 -72.19,40.65c-5.18,6.51 -4.4,7.5 6.13,7.5c7.46,0 12.25,-0.89 26.24,-5.03c9.57,-2.76 20.48,-6.31 24.31,-7.89c3.83,-1.58 7.65,-2.86 8.23,-2.86c3.07,0 27.96,-9.27 33.5,-12.43c3.25,-1.98 12.25,-4.93 19.73,-6.7c13.6,-3.15 74.68,-20.42 87.49,-24.66c3.63,-1.28 13.02,-4.14 20.68,-6.51c15.51,-4.74 16.27,-5.03 14.36,-7.39c-1.14,-1.58 -3.63,-1.67 -27.19,-1.19c-30.45,0.69 -53.99,3.45 -82.52,9.77c-9.95,2.17 -19.34,4.24 -20.48,4.44c-1.91,0.4 -2.49,-1.09 -2.49,-5.53c0,-5.62 -0.58,-6.31 -6.7,-9.48c-3.63,-1.88 -7.28,-3.45 -8.04,-3.45c-0.77,0 -5.93,1.28 -11.3,2.86l0.03,-0.03l-0.01,0zm15.51,3.05c-0.58,0.5 -1.91,0.98 -3.07,0.98c-0.96,0 -1.72,-0.5 -1.72,-0.98c0,-0.59 1.34,-0.98 3.07,-0.98c1.53,0 2.3,0.4 1.72,0.98zm-65.29,51.9c0.58,0.89 1.14,2.27 1.14,3.15c0,1.38 -0.77,1.28 -4.02,-0.5c-2.3,-1.09 -3.44,-2.57 -2.88,-3.15c1.91,-1.58 4.4,-1.38 5.74,0.5l0.01,0l0.01,0z" id="svg_15"/>
  <path d="m259.56,114.5c-0.96,0.69 -1.34,2.86 -0.96,4.84c0.19,2.27 -1.14,5.22 -3.83,7.99c-5.93,5.93 -5.93,12.73 0.19,16.08c6.51,3.55 9.57,3.15 9.57,-1.28c0.19,-1.98 1.34,-4.74 2.88,-6.12c3.25,-2.86 3.63,-7.79 1.14,-11.05c-1.14,-1.28 -2.49,-4.34 -3.07,-7.01c-1.14,-4.64 -3.25,-5.72 -5.93,-3.45l0.01,-0.01l0,0.01z" id="svg_17"/>
  <path d="m297.21,214.88c-6.9,0.4 -51.12,0.79 -98.6,0.89c-112.01,0.1 -143.02,1.48 -152.41,6.62c-5.93,3.26 -3.44,7.39 5.55,8.79c4.98,0.69 6.13,1.38 6.13,3.55l0,2.67l-12.44,-0.5c-15.13,-0.69 -22.59,1.19 -21.64,5.43l0.58,2.67l17.23,0l17.23,0l2.11,10.46c2.68,12.92 6.32,17.07 18.95,21.11l9.39,2.96l30.63,-0.29c17.04,-0.1 60.11,-0.59 95.92,-0.98c59.93,-0.69 65.87,-0.98 73.71,-2.86c17.04,-4.05 23.55,-10.25 27.19,-26.05l2.3,-9.77l8.23,-1.58c6.7,-1.38 9.57,-1.48 17.04,-0.5c9.57,1.28 15.13,0.79 16.85,-1.38c3.83,-5.22 -14.36,-9.17 -28.71,-6.41c-2.88,0.59 -5.55,0.89 -5.93,0.59c-1.34,-0.69 3.63,-4.93 7.46,-6.31c4.98,-1.88 4.4,-6.62 -0.77,-8.48c-4.6,-1.67 -14.36,-1.78 -36,-0.59l0.01,-0.03l-0.01,-0.01zm-26.8,29.6c0,0.5 -0.77,0.98 -1.91,0.98c-0.96,0 -1.91,-0.5 -1.91,-0.98c0,-0.59 0.96,-0.98 1.91,-0.98c1.14,0 1.91,0.4 1.91,0.98zm-40.21,16.28c2.49,1.58 0.58,1.98 -4.6,0.89c-1.72,-0.29 -2.49,-0.98 -1.91,-1.48c1.53,-1.28 3.83,-1.09 6.51,0.59zm-48.25,8.39c4.21,2.76 4.21,2.86 0.77,3.84c-4.79,1.28 -8.04,-0.4 -8.04,-4.05c0,-3.45 1.72,-3.45 7.28,0.19l-0.01,0.01l0,0.01zm-81.17,6.22c2.11,1.48 3.25,2.96 2.49,3.36c-1.72,0.89 -10.92,-3.65 -10.92,-5.43c0,-1.98 4.02,-0.98 8.42,2.07l0.01,0zm71.99,-1.28c0,0.5 -0.39,0.98 -0.77,0.98c-0.58,0 -1.53,-0.5 -2.11,-0.98c-0.58,-0.59 -0.19,-0.98 0.77,-0.98c1.14,0 2.11,0.4 2.11,0.98zm73.91,2.67c-1.91,0.98 -3.63,-0.5 -1.91,-1.78c1.14,-1.09 1.53,-1.09 2.3,0c0.39,0.69 0.19,1.48 -0.39,1.78z" id="svg_18" transform="matrix(1 0 0 1 0 0)"/>
  <path d="m292.74,97.57c-0.77,0.38 -0.77,3.63 0,7.28c0.96,6.15 0.58,7.28 -5.18,13.62c-4.79,5.41 -5.93,7.74 -5.18,10.91c0.96,4.76 9.39,10.54 15.13,10.54c3.44,0 3.83,-0.38 2.88,-3.36c-0.96,-2.52 0,-4.58 3.44,-7.93c5.55,-5.13 6.13,-10.26 1.91,-15.2c-1.53,-1.87 -3.25,-5.88 -3.83,-8.96c-0.39,-3.08 -1.34,-6.06 -1.91,-6.53c-1.34,-1.03 -5.35,-1.21 -7.28,-0.38l0.01,0l0.01,0.01z" id="svg_16" transform="matrix(1 0 0 1 0 0)"/>
  <g id="svg_19" transform="matrix(1 0 0 1 0 0)">
   <path d="m197.04,166.75c-1.65,3.74 0,6.15 4.27,6.15c3.72,0 4.13,-0.36 4.13,-3.62c0,-3.02 -0.55,-3.62 -3.85,-3.98c-2.34,-0.25 -3.99,0.25 -4.54,1.45l-0.01,0z" id="svg_2"/>
   <path d="m76.73,171.58c0,5.19 -0.14,5.31 -4.4,5.07c-3.85,-0.12 -4.82,0.48 -6.88,4.1c-3.03,5.31 -3.17,15.34 -0.28,21.61c2.34,5.19 3.58,5.8 12.39,5.92l5.64,0.12l0.83,-15.34c0.55,-8.45 0.96,-17.87 0.96,-21.13c0,-5.55 -0.14,-5.67 -4.13,-5.67c-3.99,0 -4.13,0.25 -4.13,5.31zm-0.69,21.25c0,7.24 -0.41,9.06 -2.06,9.06c-1.65,0 -2.2,-2.05 -2.48,-9.42c-0.41,-8.58 -0.14,-9.42 2.06,-9.06c2.06,0.36 2.48,1.69 2.48,9.42z" id="svg_3"/>
   <path d="m124.22,167.47c-0.41,0.61 -0.41,3.14 0.14,5.55c0.83,4.1 0.69,4.35 -2.06,3.5c-7.57,-2.05 -11.15,3.02 -11.15,16.18c0,11.84 6.33,19.44 12.11,14.37c1.24,-1.09 1.65,-1.09 1.65,0c0,0.84 1.51,1.45 3.44,1.45l3.44,0l0,-21.13l0,-21.13l-3.3,0c-1.93,0 -3.85,0.48 -4.27,1.21l0,0.01zm0.41,26.2c-0.55,8.58 -1.79,10.38 -4.68,7.12c-2.34,-2.89 -2.62,-13.16 -0.41,-16.66c1.51,-2.53 1.65,-2.53 3.58,-0.25c1.38,1.57 1.79,4.59 1.51,9.78l0,0.01z" id="svg_4"/>
   <path d="m135.1,168.2c0.41,1.09 0.83,4.35 0.83,7.24c0,4.47 0.41,5.31 2.75,5.31c2.06,0 2.75,-0.84 2.75,-3.5c0,-1.93 0.41,-5.19 0.83,-7.24c0.83,-3.62 0.69,-3.74 -3.58,-3.74c-3.44,0 -4.27,0.36 -3.58,1.93z" id="svg_5"/>
   <path d="m175.02,187.4c0.14,21.13 0.14,21.13 3.3,21.13c2.62,0 3.03,-0.73 3.17,-4.59l0.14,-4.47l2.2,4.47c1.65,3.26 3.17,4.59 5.37,4.59c4.68,0 5.09,-2.05 1.24,-7.97l-3.58,-5.55l3.44,-7.37c4.27,-9.06 4.27,-10.5 0.14,-10.5c-2.75,0 -3.72,0.96 -5.37,5.07l-2.06,5.19l-0.14,-10.63l-0.14,-10.5l-3.85,0l-3.99,0l0.14,21.13l-0.01,0z" id="svg_6"/>
   <path d="m244.26,167.11c-0.28,0.48 -0.69,9.54 -0.69,19.92c-0.14,17.75 0,18.96 2.48,19.68c4.54,1.32 5.51,-0.48 5.51,-10.26c0,-10.5 0.69,-13.28 3.58,-13.28c2.89,0 3.72,5.19 2.75,15.21l-0.96,8.93l4.27,0l4.13,0l0,-12.56c0,-7.01 -0.55,-14 -1.38,-15.69c-1.38,-3.38 -5.09,-4.1 -9.77,-1.82c-2.75,1.21 -2.75,0.96 -2.48,-4.59c0.41,-5.44 0.28,-5.8 -3.17,-6.15c-1.93,-0.25 -3.85,0 -4.27,0.61l0,-0.01z" id="svg_7"/>
   <path d="m211.63,172.91c0,3.5 -0.55,4.23 -2.89,4.23c-2.2,0 -2.75,0.61 -2.34,3.26c0.28,2.41 1.1,3.26 2.89,3.02c2.06,-0.36 2.34,0.96 2.34,12.43l0,12.68l3.44,0l3.44,0l0,-12.68c0,-11.84 0.14,-12.68 2.75,-12.68c2.06,0 2.75,-0.84 2.75,-3.02c0,-1.93 -0.83,-3.02 -2.06,-3.02c-1.38,0 -2.06,-1.32 -2.06,-4.23c0,-3.87 -0.28,-4.23 -4.13,-4.23c-3.85,0 -4.13,0.36 -4.13,4.23z" id="svg_8"/>
   <path d="m147.76,177.01c-4.13,3.87 -3.44,10.26 1.65,15.69c5.64,6.28 5.78,9.06 0.41,8.33c-3.44,-0.48 -4.13,0 -4.68,2.3c-1.1,5.07 7.3,7.01 12.53,2.89c4.54,-3.38 4.13,-10.26 -1.1,-15.46c-2.2,-2.17 -4.13,-5.19 -4.13,-6.52c0,-2.17 0.69,-2.53 4.13,-2.05c3.72,0.48 4.13,0.25 4.13,-2.78c0,-5.07 -8.53,-6.64 -12.94,-2.41l0,0.01z" id="svg_9"/>
   <path d="m90.64,179.06c-1.65,1.82 -2.89,4.47 -2.89,6.15c0,2.41 0.55,2.78 4.13,2.53c3.3,-0.25 4.13,-0.84 4.13,-3.02c0,-1.69 0.83,-2.78 2.06,-2.78c1.24,0 2.06,1.09 2.06,2.89c0,1.93 -1.93,4.1 -6.06,6.88c-7.16,4.71 -8.81,8.58 -5.64,12.8c3.03,3.98 5.64,4.59 9.36,2.41c2.89,-1.69 3.3,-1.57 4.54,0.12c0.96,1.21 2.34,1.57 3.85,1.09c2.2,-0.84 2.48,-2.3 1.93,-14c-0.41,-10.86 -0.96,-13.64 -3.03,-15.69c-3.85,-3.74 -10.87,-3.38 -14.45,0.61l0.01,0zm9.91,16.42c-1.1,3.62 -3.03,5.8 -5.37,5.8c-2.89,0 -2.34,-2.17 1.51,-5.44c4.13,-3.74 4.82,-3.74 3.85,-0.36l0.01,0z" id="svg_10"/>
   <path d="m228.7,178.47c-2.06,2.05 -2.75,4.71 -3.03,13.28c-0.55,10.5 -0.55,10.75 3.58,14.37c5.23,4.47 11.29,4.95 11.29,0.84c0,-1.69 -1.24,-3.14 -3.03,-3.87c-4.13,-1.57 -6.19,-8.69 -4.4,-14.85c0.96,-3.62 1.93,-4.59 4.96,-4.83c3.03,-0.36 3.58,-0.96 3.44,-3.62c-0.28,-2.78 -0.96,-3.26 -5.23,-3.62c-3.58,-0.25 -5.51,0.36 -7.57,2.3l-0.01,0z" id="svg_11"/>
   <path d="m272.34,179.06c-5.51,6.15 -5.37,21.74 0.14,27.05c2.34,2.17 3.85,2.53 8.95,2.05c7.3,-0.73 7.43,-0.84 6.33,-4.35c-0.69,-2.3 -1.51,-2.66 -4.54,-2.17c-3.85,0.73 -6.88,-0.84 -6.88,-3.5c0,-0.96 2.2,-1.69 5.23,-1.93l5.09,-0.36l0.41,-6.28c0.55,-8.45 -2.48,-13.64 -7.98,-13.64c-2.62,0 -4.82,1.09 -6.75,3.14l0,-0.01zm7.85,8.58c-0.55,4.71 -3.85,5.07 -3.85,0.48c0,-2.53 0.69,-3.74 2.2,-3.74c1.51,0 1.93,0.96 1.65,3.26z" id="svg_12"/>
   <path d="m196.49,192.22c0,13.52 0.28,15.21 2.2,14.61c1.24,-0.36 3.03,-0.73 4.13,-0.73c1.65,0 1.93,-2.41 1.65,-14.25l-0.41,-14.13l-3.72,-0.36l-3.85,-0.36l0,15.21z" id="svg_14"/>
   <path d="m303.17,177.26c-1.51,0.48 -4.82,0.96 -7.16,0.96l-4.54,0.12l0,14.37c0,14.25 0,14.25 3.3,14.25c3.03,0 3.3,-0.36 3.85,-10.75c0.83,-10.99 2.48,-14.73 5.37,-12.2c0.96,0.84 1.38,5.31 1.1,12.32l-0.55,10.99l3.58,0c4.27,0 5.37,-3.14 5.37,-14.37c0,-12.92 -3.44,-18.12 -10.32,-15.69z" id="svg_13"/>
  </g>
 </g>
</svg>