<?xml version="1.0" standalone="no"?>
<!DOCTYPE svg PUBLIC "-//W3C//DTD SVG 20010904//EN"
 "http://www.w3.org/TR/2001/REC-SVG-20010904/DTD/svg10.dtd">
<svg version="1.0" xmlns="http://www.w3.org/2000/svg"
 width="300.000000pt" height="300.000000pt" viewBox="0 0 300.000000 300.000000"
 preserveAspectRatio="xMidYMid meet">

<g transform="translate(0.000000,300.000000) scale(0.100000,-0.100000)"
fill="#7cc0d8" stroke="none">
<path d="M1184 2591 c-64 -35 -134 -99 -134 -121 0 -20 64 -81 110 -105 l31
-16 -58 -41 c-176 -125 -326 -288 -377 -412 -27 -66 -23 -76 32 -76 39 0 64 9
137 51 50 28 107 64 127 80 20 16 40 29 43 29 16 0 146 94 175 126 17 20 64
50 103 68 71 32 390 207 457 250 19 13 68 42 108 66 81 48 85 51 75 75 -6 16
-19 17 -142 12 -159 -7 -282 -35 -431 -99 -52 -22 -101 -43 -107 -45 -10 -4
-13 11 -13 56 0 57 -3 64 -35 96 -19 19 -38 35 -42 35 -4 0 -31 -13 -59 -29z
m81 -31 c-3 -5 -10 -10 -16 -10 -5 0 -9 5 -9 10 0 6 7 10 16 10 8 0 12 -4 9
-10z m-341 -526 c3 -9 6 -23 6 -32 0 -14 -4 -13 -21 5 -12 11 -18 26 -15 32
10 16 23 14 30 -5z"/>
<path d="M1867 2274 c-4 -4 -4 -39 0 -78 5 -66 3 -78 -27 -146 -25 -58 -31
-83 -27 -117 5 -51 49 -113 79 -113 18 0 20 4 15 36 -5 27 0 49 18 85 29 55
32 110 10 163 -8 20 -17 63 -20 96 -2 33 -7 65 -10 70 -7 11 -28 13 -38 4z"/>
<path d="M1704 2138 c-5 -7 -7 -29 -5 -49 1 -23 -6 -53 -20 -81 -31 -60 -31
-129 1 -163 34 -36 50 -32 50 13 1 20 7 48 15 62 17 29 19 79 6 112 -6 13 -13
44 -16 71 -6 47 -17 58 -31 35z"/>
<path d="M1564 1716 c-12 -31 0 -51 31 -51 27 0 30 3 30 30 0 25 -4 30 -28 33
-17 2 -29 -2 -33 -12z"/>
<path d="M690 1676 c0 -43 -1 -44 -32 -42 -28 1 -35 -4 -50 -34 -22 -44 -23
-127 -2 -179 17 -43 26 -48 90 -49 l41 -1 6 127 c4 70 7 148 7 175 0 46 -1 47
-30 47 -29 0 -30 -2 -30 -44z m-5 -176 c0 -60 -3 -75 -15 -75 -12 0 -16 17
-18 78 -3 71 -1 78 15 75 15 -3 18 -14 18 -78z"/>
<path d="M1035 1710 c-3 -5 -3 -26 1 -46 6 -34 5 -36 -15 -29 -55 17 -81 -25
-81 -134 0 -98 46 -161 88 -119 9 9 12 9 12 0 0 -7 11 -12 25 -12 l25 0 0 175
0 175 -24 0 c-14 0 -28 -4 -31 -10z m3 -217 c-4 -71 -13 -86 -34 -59 -17 24
-19 109 -3 138 11 21 12 21 26 2 10 -13 13 -38 11 -81z"/>
<path d="M1114 1704 c3 -9 6 -36 6 -60 0 -37 3 -44 20 -44 15 0 20 7 20 29 0
16 3 43 6 60 6 30 5 31 -26 31 -25 0 -31 -3 -26 -16z"/>
<path d="M1404 1545 c1 -175 1 -175 24 -175 19 0 22 6 23 38 l1 37 16 -37 c12
-27 23 -38 39 -38 34 0 37 17 9 66 l-26 46 25 61 c31 75 31 87 1 87 -20 0 -27
-8 -39 -42 l-15 -43 -1 88 -1 87 -28 0 -29 0 1 -175z"/>
<path d="M1907 1713 c-2 -4 -5 -79 -5 -165 -1 -147 0 -157 18 -163 33 -11 40
4 40 85 0 87 5 110 26 110 21 0 27 -43 20 -126 l-7 -74 31 0 30 0 0 104 c0 58
-4 116 -10 130 -10 28 -37 34 -71 15 -20 -10 -20 -8 -18 38 3 45 2 48 -23 51
-14 2 -28 0 -31 -5z"/>
<path d="M1670 1665 c0 -29 -4 -35 -21 -35 -16 0 -20 -5 -17 -27 2 -20 8 -27
21 -25 15 3 17 -8 17 -103 l0 -105 25 0 25 0 0 105 c0 98 1 105 20 105 15 0
20 7 20 25 0 16 -6 25 -15 25 -10 0 -15 11 -15 35 0 32 -2 35 -30 35 -28 0
-30 -3 -30 -35z"/>
<path d="M1206 1631 c-30 -32 -25 -85 12 -130 41 -52 42 -75 3 -69 -25 4 -30
0 -34 -19 -8 -42 53 -58 91 -24 33 28 30 85 -8 128 -16 18 -30 43 -30 54 0 18
5 21 30 17 27 -4 30 -2 30 23 0 42 -62 55 -94 20z"/>
<path d="M791 1614 c-12 -15 -21 -37 -21 -51 0 -20 4 -23 30 -21 24 2 30 7 30
25 0 14 6 23 15 23 9 0 15 -9 15 -24 0 -16 -14 -34 -44 -57 -52 -39 -64 -71
-41 -106 22 -33 41 -38 68 -20 21 14 24 13 33 -1 7 -10 17 -13 28 -9 16 7 18
19 14 116 -3 90 -7 113 -22 130 -28 31 -79 28 -105 -5z m72 -136 c-8 -30 -22
-48 -39 -48 -21 0 -17 18 11 45 30 31 35 31 28 3z"/>
<path d="M1794 1619 c-15 -17 -20 -39 -22 -110 -4 -87 -4 -89 26 -119 38 -37
82 -41 82 -7 0 14 -9 26 -22 32 -30 13 -45 72 -32 123 7 30 14 38 36 40 22 3
26 8 25 30 -2 23 -7 27 -38 30 -26 2 -40 -3 -55 -19z"/>
<path d="M2111 1614 c-40 -51 -39 -180 1 -224 17 -18 28 -21 65 -17 53 6 54 7
46 36 -5 19 -11 22 -33 18 -28 -6 -50 7 -50 29 0 8 16 14 38 16 l37 3 3 52 c4
70 -18 113 -58 113 -19 0 -35 -9 -49 -26z m57 -71 c-4 -39 -28 -42 -28 -4 0
21 5 31 16 31 11 0 14 -8 12 -27z"/>
<path d="M2335 1629 c-11 -4 -35 -8 -52 -8 l-33 -1 0 -119 c0 -118 0 -118 24
-118 22 0 24 3 28 89 6 91 18 122 39 101 7 -7 10 -44 8 -102 l-4 -91 26 0 c31
0 39 26 39 119 0 107 -25 150 -75 130z"/>
<path d="M1560 1505 c0 -112 2 -126 16 -121 9 3 22 6 30 6 12 0 14 20 12 118
l-3 117 -27 3 -28 3 0 -126z"/>
<path d="M2050 1040 c-36 -4 -267 -8 -515 -9 -585 -1 -747 -15 -796 -67 -31
-33 -18 -75 29 -89 26 -7 32 -14 32 -36 l0 -27 -65 5 c-79 7 -118 -12 -113
-55 l3 -27 90 0 90 0 11 -106 c14 -131 33 -173 99 -214 l49 -30 160 3 c89 1
314 6 501 10 313 7 344 10 385 29 89 41 123 104 142 264 l12 99 43 16 c35 14
50 15 89 5 50 -13 79 -8 88 14 20 53 -75 93 -150 65 -15 -6 -29 -9 -31 -6 -7
7 19 50 39 64 26 19 23 67 -4 86 -24 17 -75 18 -188 6z m-140 -300 c0 -5 -4
-10 -10 -10 -5 0 -10 5 -10 10 0 6 5 10 10 10 6 0 10 -4 10 -10z m-210 -165
c13 -16 3 -20 -24 -9 -9 3 -13 10 -10 15 8 13 20 11 34 -6z m-252 -85 c22 -28
22 -29 4 -39 -25 -13 -42 4 -42 41 0 35 9 35 38 -2z m-424 -63 c11 -15 17 -30
13 -34 -9 -9 -57 37 -57 55 0 20 21 10 44 -21z m376 13 c0 -5 -2 -10 -4 -10
-3 0 -8 5 -11 10 -3 6 -1 10 4 10 6 0 11 -4 11 -10z m386 -27 c-10 -10 -19 5
-10 18 6 11 8 11 12 0 2 -7 1 -15 -2 -18z"/>
</g>
</svg>
